<?xml version="1.0" encoding="UTF-8"?>
<svg width="170px" height="60px" viewBox="0 0 170 60" version="1.1" xmlns="http://www.w3.org/2000/svg" xmlns:xlink="http://www.w3.org/1999/xlink">
    <title>形状结合</title>
    <g id="登录" stroke="none" stroke-width="1" fill="none" fill-rule="evenodd">
        <g id="3登录页-账号登录-二维码登录" transform="translate(-80.000000, -46.000000)">
            <g id="holder" transform="translate(79.999909, 46.000000)">
                <g id="编组-2" transform="translate(0.000000, 14.000000)" fill="#3646B5">
                    <path d="M22.6970713,17.9083976 C23.1426137,15.3985736 25.5123545,15.0522568 28.4044889,15.771156 C30.2956121,16.2410184 31.4493529,18.1729992 30.9308505,20.0543944 L30.9220953,20.0864968 C30.7946585,20.547604 30.6380377,20.9960648 30.4570969,21.4357704 C30.4395865,21.4931656 30.4152665,21.5515336 30.3997017,21.5943368 C30.1078617,22.2782152 29.7917017,22.9173448 29.4531673,23.5136712 L29.4531673,23.5136712 C25.5065177,30.4886472 18.7494489,31.6453064 16.2619993,31.7221576 C16.2230873,31.7231304 16.1832025,31.7241032 16.1433177,31.7241032 C16.0479833,31.7260488 15.9507033,31.7289672 15.8573145,31.729989 L15.8573145,31.729989 L15.8271577,31.729989 C14.6510425,31.7328584 13.4583897,31.6054216 12.2608729,31.3340104 C10.9972057,31.0470344 9.80747126,30.616084 8.69750646,30.0625608 C8.54185846,29.9857096 8.38912886,29.90594 8.23834486,29.8242248 C7.46886006,29.375764 6.94160246,28.8027848 6.77136246,28.1656008 C6.73926006,28.0303816 6.72272246,27.892244 6.72272246,27.7521608 C6.72272246,27.5994312 6.73634166,27.4535112 6.76066166,27.3153736 C6.76163446,27.3066184 6.76455286,27.2998088 6.76552566,27.2910536 C7.00386166,26.3532744 8.01654646,25.5497416 9.44169846,25.080852 C9.44169846,25.080852 13.1597401,23.7296328 14.8300377,25.2452552 C15.2794713,25.6528584 15.0605913,26.3610568 14.4808025,26.5332424 C12.8445529,27.0196424 11.9310937,27.5799752 11.9310937,28.3815624 C11.9310937,29.3057224 13.3056601,30.0888264 15.2104025,30.3651016 C15.4944601,30.406932 15.7950553,30.4380616 16.1024601,30.4545992 C16.1121881,30.4545992 16.1189977,30.455572 16.1267801,30.4575176 C16.2765913,30.4808648 16.3429578,30.4851884 16.5025691,30.4860531 L16.8583257,30.4867016 C16.9118297,30.4857288 16.9779801,30.4760008 17.0314841,30.475028 C17.0538585,30.475028 17.0752601,30.4740552 17.1005529,30.4740552 C17.2503641,30.4682184 17.3972569,30.4575176 17.5373401,30.4419528 C19.1677529,30.31938 20.6503001,29.730836 21.4090841,29.2463816 C21.9742809,28.8845 22.2058073,28.7667912 22.5336409,28.5226184 C24.2438233,27.2492232 26.4520793,24.599316 23.7788249,21.0690248 C23.7710425,21.0602696 23.7632601,21.0524872 23.7574233,21.0427592 C23.5784281,20.8725192 23.4305625,20.6944968 23.3040985,20.513556 C23.2126553,20.4182216 23.1552601,20.3228872 23.1192665,20.2236616 C22.5112665,19.1487176 22.6659417,18.0883656 22.6970713,17.9083976 Z M2.74260854,17.3016622 C6.44703094,13.990251 22.1032741,11.7440558 21.1324197,18.2637614 C21.0886437,18.5594926 20.6080805,21.1490862 17.3005605,21.3417006 C16.6760229,21.3183534 16.0563493,21.310571 15.4502949,21.3144622 C11.5571493,21.0313774 8.07549814,21.7522222 6.06958454,23.0693934 C4.99755894,23.6900398 4.41777014,24.4371502 4.33702774,25.2630574 C4.31368054,25.3778478 4.29422454,25.4926382 4.28449654,25.6113198 C4.24753014,26.1181486 4.36913014,26.6201134 4.63081334,27.103595 L4.63081334,27.103595 L4.51407734,26.9897774 C3.88525942,26.3134869 3.6922559,26.08484 3.21535043,25.4401771 L2.94990718,25.0791792 L2.94990718,25.0791792 L2.79319414,24.8651822 C2.22605174,24.014955 2.17254774,23.9050286 1.48575094,22.5518638 L1.48575094,22.5518638 L1.20266614,21.9020334 C0.476957343,20.0712238 1.17250934,18.7044398 2.74260854,17.3016622 Z M14.899301,5.22182096 C17.929573,5.16053456 20.2584562,5.23933136 22.0513266,5.42708176 L22.0513266,5.42708176 L22.0773775,5.4275905 C22.3163692,5.43507602 24.1411604,5.55244326 25.1117554,7.38921936 C25.7061362,8.51961296 25.6302578,11.8485346 22.5581554,11.6296546 C11.9254514,10.8767074 -0.395060577,12.2493282 0.211966623,18.5141602 L0.211966623,18.5141602 L0.0913394235,17.6658786 C0.0274418235,17.0742114 0.00428864455,16.8430353 0.000557994131,16.3268116 L0.000212500502,16.0419572 C0.00110885507,15.7798026 0.00476022349,15.4494818 0.00962422349,15.0042978 C0.0660466235,14.049981 0.0718834235,14.0169058 0.382206623,12.3067234 C0.526181023,11.7337442 0.756734623,10.9798242 0.933784223,10.4156002 C0.996043423,10.2696802 1.06997622,10.071229 1.14099062,9.93017296 C3.37453942,5.67222736 12.9945586,5.26170576 14.899301,5.22182096 Z M8.85480822,1.64940752 C12.703205,-0.266035676 19.8202098,-0.802048476 20.4846322,1.61146832 C20.5264626,1.76225232 20.8095474,3.07747792 18.0409586,3.16989392 C12.022245,3.36931792 5.45876342,3.51037392 2.61818742,7.12724432 L2.61818742,7.12724432 L2.92072822,6.58928592 C3.42755702,5.71376592 3.49176182,5.63594192 4.66009462,4.49873872 C5.41498742,3.76330192 5.53561462,3.66602192 6.83332982,2.78855632 C7.51234422,2.32939472 7.50748022,2.31966672 8.85480822,1.64940752 Z" id="形状结合"></path>
                </g>
                <path d="M70.7368292,21.8308923 C71.8568292,21.8308923 72.9275985,22.0462769 73.9515985,22.4770462 C74.9755985,22.9078154 75.8851369,23.5268923 76.6777523,24.3367385 C77.4802139,25.1441231 78.0857523,26.0795077 78.49806,27.1416615 C78.9103677,28.2038154 79.1159062,29.3496615 79.1159062,30.5816615 C79.1159062,31.6093538 78.9731369,32.5779692 78.6851369,33.4838154 C78.3983677,34.3908923 77.97006,35.2179692 77.4039062,35.9662769 C76.6026754,37.0321231 75.61806,37.8592 74.45006,38.4499692 C73.2832908,39.0395077 72.0451369,39.3336615 70.7368292,39.3336615 C69.6254446,39.3336615 68.56206,39.1182769 67.5454446,38.6875077 C67.17006,38.5287385 66.8155985,38.3342769 66.4722139,38.1238154 L66.4722139,38.1238154 L68.7085216,35.0468923 C69.31406,35.4112 69.9835985,35.6155077 70.7368292,35.6155077 C71.9688292,35.6155077 73.0002139,35.1355077 73.8322139,34.1755077 C74.6642139,33.2167385 75.0802139,32.0179692 75.0802139,30.5816615 C75.0802139,29.1392 74.6642139,27.9355077 73.8322139,26.9718154 C73.0002139,26.0081231 71.9688292,25.5268923 70.7368292,25.5268923 C69.5122139,25.5268923 68.48206,26.0081231 67.6475985,26.9718154 C66.8119062,27.9355077 66.3946754,29.1392 66.3946754,30.5816615 C66.3946754,31.6192 66.6223677,32.5287385 67.0617523,33.3213538 L67.0617523,33.3213538 L64.6605216,36.6247385 C63.9368292,35.8358154 63.3743677,34.9607385 62.9866754,33.9884308 C62.5682139,32.9348923 62.3589831,31.7988923 62.3589831,30.5816615 C62.3589831,29.3656615 62.5682139,28.2259692 62.9866754,27.1650462 C63.4063677,26.1028923 64.0254446,25.1527385 64.8414446,24.3133538 C65.6119062,23.5121231 66.5079062,22.8979692 67.5282139,22.4721231 C68.5485216,22.0438154 69.61806,21.8308923 70.7368292,21.8308923 Z M48.6560908,22.4233846 L48.6560908,28.4541538 L58.8493216,28.4541538 L58.8493216,38.8603077 L54.9933216,38.8603077 L54.9933216,31.968 L48.6560908,31.968 L48.6560908,38.8603077 L44.7779369,38.8603077 L44.7779369,22.4233846 L48.6560908,22.4233846 Z M86.5305523,22.4233846 L86.5305523,35.3353846 L92.9367062,35.3353846 L92.9367062,38.8603077 L82.6080908,38.8603077 L82.6080908,22.4233846 L86.5305523,22.4233846 Z M100.885014,22.4233846 L101.293502,22.4299992 C104.124617,22.5073338 106.361377,23.2364196 108.003783,24.6215385 L108.003783,24.6215385 L108.225691,24.8159603 C109.816881,26.2641896 110.613014,28.2067157 110.613014,30.6424615 L110.613014,30.6424615 L110.606897,30.9916135 C110.557964,32.3760692 110.215475,33.6146746 109.580398,34.7064615 L109.580398,34.7064615 L109.415947,34.9754308 C108.735406,36.0365298 107.781961,36.9202367 106.552706,37.6246154 L106.552706,37.6246154 L106.224837,37.805316 C105.561083,38.1515102 104.849146,38.4065055 104.087475,38.5710769 L104.087475,38.5710769 L103.783521,38.6318877 C102.952311,38.7844558 101.955783,38.8603077 100.793937,38.8603077 L100.793937,38.8603077 L96.4283985,38.8603077 L96.4283985,22.4233846 L100.885014,22.4233846 Z M124.229014,22.4233846 L124.229014,25.8129231 L117.912706,25.8129231 L117.912706,28.7827692 L123.320706,28.7827692 L123.320706,32.1501538 L117.912706,32.1501538 L117.912706,35.4030769 L124.31886,35.4030769 L124.31886,38.8603077 L114.104706,38.8603077 L114.104706,22.4233846 L124.229014,22.4233846 Z M132.039475,22.4233846 L132.401139,22.4256104 C133.581466,22.4404425 134.509629,22.5293427 135.186552,22.6904615 L135.186552,22.6904615 L135.500474,22.7737268 C136.117918,22.954876 136.67297,23.2237363 137.165629,23.5803077 L137.165629,23.5803077 L137.388201,23.7494663 C137.892706,24.1555 138.293322,24.6409231 138.588398,25.2073846 L138.588398,25.2073846 L138.706144,25.451012 C138.962687,26.0236154 139.091783,26.6250769 139.091783,27.2529231 L139.091783,27.2529231 L139.085283,27.5320423 C139.041952,28.4518551 138.781965,29.2657902 138.305322,29.9729231 L138.305322,29.9729231 L138.140682,30.2015163 C137.625826,30.8719138 136.922552,31.4039385 136.03086,31.7993846 L136.03086,31.7993846 L141.042552,38.8603077 L136.563783,38.8603077 L132.176091,32.4098462 L131.621014,32.4098462 L131.621014,38.8603077 L127.810552,38.8603077 L127.810552,22.4233846 L132.039475,22.4233846 Z M101.16686,25.9273846 L100.305322,25.9273846 L100.305322,35.3353846 L101.16686,35.3353846 L101.484384,35.3305099 C103.050014,35.2817644 104.285783,34.8674615 105.192706,34.0886154 L105.192706,34.0886154 L105.368625,33.9291112 C106.219745,33.1129183 106.643783,32.0166923 106.643783,30.6424615 L106.643783,30.6424615 L106.638128,30.3710763 C106.581576,29.0326058 106.100783,27.9709231 105.192706,27.184 L105.192706,27.184 L105.006937,27.0317641 C104.056163,26.2951731 102.776475,25.9273846 101.16686,25.9273846 L101.16686,25.9273846 Z M132.267168,25.4166154 L131.621014,25.4166154 L131.621014,29.9729231 L132.448091,29.9729231 L132.712196,29.967951 C133.573309,29.9348099 134.241993,29.7360559 134.716398,29.3735385 L134.716398,29.3735385 L134.852222,29.259837 C135.283315,28.8665734 135.497937,28.3306294 135.497937,27.6492308 L135.497937,27.6492308 L135.492656,27.4571538 C135.453928,26.7695128 135.202245,26.2649231 134.738552,25.9433846 L134.738552,25.9433846 L134.605193,25.8590755 C134.09204,25.5634701 133.313014,25.4166154 132.267168,25.4166154 L132.267168,25.4166154 Z M56.8456292,21.9741538 L56.9903686,21.9792792 C58.1856402,22.0642167 59.0965642,23.1927101 58.8160908,24.4566154 L58.8160908,24.4566154 L58.7771853,24.6028111 C58.5695431,25.2753778 58.0023062,25.8068513 57.3096292,25.9630769 L57.3096292,25.9630769 L57.1632086,25.9907159 C55.7546672,26.2067323 54.5599267,24.9540513 54.8763985,23.5323077 L54.8763985,23.5323077 L54.9153039,23.3860967 C55.1229462,22.7133921 55.6901831,22.1809231 56.38286,22.0258462 C56.5391677,21.9901538 56.6942446,21.9741538 56.8456292,21.9741538 L56.8456292,21.9741538 Z" id="形状结合" fill="#484848"></path>
            </g>
        </g>
    </g>
</svg>