<?xml version="1.0" encoding="UTF-8"?>
<svg width="82px" height="78px" viewBox="0 0 82 78" version="1.1" xmlns="http://www.w3.org/2000/svg" xmlns:xlink="http://www.w3.org/1999/xlink">
    <title>二维码</title>
    <defs>
        <path d="M0,0 L74,0 C78.418278,-8.11624501e-16 82,3.581722 82,8 L82,78 L82,78 L0,0 Z" id="path-1"></path>
    </defs>
    <g id="登录" stroke="none" stroke-width="1" fill="none" fill-rule="evenodd">
        <g id="2登录页-账号登录报错" transform="translate(-1390.000000, -265.000000)">
            <g id="登录页面" transform="translate(1012.000000, 265.000000)">
                <g id="二维码" transform="translate(378.000000, 0.000000)">
                    <mask id="mask-2" fill="white">
                        <use xlink:href="#path-1"></use>
                    </mask>
                    <use id="蒙版" fill="#EAECF7" xlink:href="#path-1"></use>
                    <g id="编组" mask="url(#mask-2)" fill="#3646B5" fill-rule="nonzero">
                        <g transform="translate(22.000000, 18.000000)">
                            <path d="M31.6556524,0.116636146 C31.5381264,0.131849556 31.4154905,0.121707283 31.2979645,0.121707282 C29.3562302,0.121707282 27.4144959,0.116636146 25.4727617,0.126778419 C24.9106807,0.126778419 24.3537095,0.197774334 23.8171777,0.385406395 C22.8667499,0.715030286 22.2944492,1.37427807 22.0593972,2.33272292 C21.9725301,2.68770249 21.9367613,3.0477532 21.9367613,3.41287505 C21.9367613,6.82067897 21.9316515,10.2234117 21.9418712,13.6312157 C21.9418712,14.3310325 21.9878596,15.0308494 22.2586804,15.7002395 C22.6112585,16.5674039 23.2653164,17.0795887 24.1646459,17.3077898 C24.486565,17.388928 24.8187038,17.4193548 25.1508426,17.4193548 L36.2902656,17.4193548 C36.7143812,17.4193548 37.1384968,17.3838569 37.5575027,17.3027187 C38.8043005,17.0745175 39.6218728,16.2529934 39.851815,15.0207071 C39.8722543,14.9091421 39.8313757,14.757008 40,14.7062967 L40,2.94125933 C39.9795607,2.92097479 39.9744509,2.8956191 39.9744509,2.86519228 C39.8978035,2.62177772 39.8875838,2.36822088 39.8058266,2.11973517 C39.4430289,1.05479645 38.6969941,0.425975489 37.6188206,0.152134103 C37.2917917,0.0709959145 36.9647627,0.0304268204 36.6224043,0.045640231 C36.5559766,0.0507113679 36.4691095,0.0963515989 36.4231211,0 L31.875375,0 C31.8549357,0.131849556 31.7374096,0.106493872 31.6556524,0.116636146 L31.6556524,0.116636146 Z M36.6990517,2.18058882 C36.9034448,2.18058882 37.1129477,2.22622905 37.3071211,2.28708269 C37.6596992,2.3986477 37.8538726,2.67248908 37.8538726,3.05282434 C37.8538726,6.84603465 37.8589825,10.639245 37.8487628,14.4324553 C37.8487628,15.0004226 37.4093177,15.3452599 36.7705893,15.350331 C34.8186354,15.3655444 32.8717912,15.3554022 30.9198373,15.3554022 L25.1457327,15.3554022 C24.9157905,15.3554022 24.7062876,15.2894774 24.4967847,15.2184815 C24.0624494,15.0612762 24.0062413,14.6860121 24.0011315,14.310748 C23.9909118,12.4090717 23.9960216,10.5073954 23.9960216,8.60571912 L23.9960216,3.25566981 C23.9960216,2.92604592 24.072669,2.62177772 24.3485997,2.39357656 C24.5836517,2.20087336 24.8749119,2.17551768 25.1457327,2.17551768 C28.9985423,2.17044654 32.8513519,2.17551768 36.6990517,2.18058882 L36.6990517,2.18058882 Z" id="形状"></path>
                            <path d="M31.6740703,0.0554957364 C29.6687397,0.0605408034 27.6634091,0.0605408034 25.6631552,0.0605408034 C25.1859373,0.0605408034 24.718873,0.110991473 24.2568854,0.216937878 C23.6679782,0.353154685 23.1349156,0.605408032 22.7338495,1.05946406 C22.1957101,1.66991715 21.9824851,2.41658706 21.9824851,3.20866257 C21.9723315,6.72002915 21.9723315,10.2364408 21.9824851,13.7478074 C21.9824851,14.2069085 22.0180226,14.6710546 22.1246351,15.1200656 C22.2667851,15.7103384 22.5104709,16.2552056 22.9724584,16.658811 C23.5664424,17.1784529 24.2873461,17.415571 25.0793248,17.415571 C28.8412235,17.4206161 32.608199,17.4206161 36.3700977,17.415571 C36.8422389,17.415571 37.3194568,17.3903457 37.7763676,17.264219 C38.740957,16.9917854 39.4821678,16.4620534 39.8070821,15.4580851 C39.8933875,15.1906965 39.8984643,14.9081728 40,14.6458293 C39.8375428,14.69628 39.8730803,14.847632 39.8527732,14.9586234 C39.6243178,16.1896198 38.812032,17.0018756 37.5732961,17.2289036 C37.1569996,17.3045796 36.7356263,17.3449401 36.3142531,17.3449401 L25.2468587,17.3449401 C24.9168676,17.3449401 24.5868765,17.3146697 24.267039,17.2339486 C23.3786013,17.0069206 22.7236959,16.4973689 22.3733976,15.6346624 C22.104328,14.9737586 22.0586369,14.2724943 22.0586369,13.5762751 C22.0484833,10.1859901 22.0535601,6.80075022 22.0535601,3.41046524 C22.0535601,3.04722043 22.0890976,2.68902067 22.175403,2.33586599 C22.4089351,1.38234834 22.9775352,0.726489638 23.9218175,0.398560288 C24.4548801,0.211892811 25.0082498,0.146306941 25.5666963,0.141261874 C27.4958751,0.13117174 29.4250539,0.136216807 31.3542328,0.136216807 C31.4709989,0.136216807 31.5928417,0.146306941 31.7096078,0.13117174 C31.7959132,0.121081607 31.9076025,0.141261874 31.9228328,0.0100901341 C31.8619114,0.116036539 31.7603757,0.0554957364 31.6740703,0.0554957364 L31.6740703,0.0554957364 Z M0.12691966,14.701325 C0.228455388,15.3319584 0.406142912,15.9323214 0.852900114,16.4166478 C1.43673055,17.0573713 2.19824851,17.3247598 3.03591826,17.3298049 C6.84858485,17.3449401 10.6612514,17.3449401 14.4789948,17.3298049 C14.9562127,17.3298049 15.4385074,17.2793542 15.9055718,17.1330473 C17.1493844,16.7445771 17.8905953,15.755744 17.8905953,14.4541168 C17.8905953,10.7207672 17.8905953,6.99246276 17.895672,3.25911324 C17.895672,2.93622895 17.8550577,2.6234348 17.7738292,2.31064065 C17.4793756,1.18054566 16.5300165,0.338019485 15.3623556,0.176577343 C15.1542074,0.146306941 14.9460591,0.121081607 14.7328341,0.121081606 C14.6312984,0.121081606 14.5043787,0.151352008 14.4688412,0 L9.95050133,0 C9.88450311,0.105946405 9.78296738,0.0454056024 9.7017388,0.0454056024 C7.61517959,0.0504506694 5.52862038,0.0353154687 3.44206118,0.0554957364 C2.69069679,0.0605408034 1.95963955,0.186667476 1.29965732,0.595317898 C0.665059018,0.988833118 0.294453611,1.55892568 0.0964589416,2.26018998 C0.0558446505,2.39640679 0.086305369,2.5477588 0,2.67388547 L0,14.4288914 C0.147226805,14.474297 0.111689301,14.6054688 0.12691966,14.701325 Z M2.13225029,3.04722043 C2.13225029,2.63857 2.44701104,2.31064065 2.86838431,2.22487452 C3.09176291,2.17946891 3.31514152,2.17442385 3.53852012,2.17442385 L14.6566823,2.17442385 C14.8749841,2.17442385 15.0831324,2.21478438 15.2862038,2.27532518 C15.6669628,2.39640679 15.8344968,2.6234348 15.8344968,3.01190496 L15.8344968,14.3885309 C15.8344968,14.8022264 15.6415789,15.0595248 15.2455895,15.1906965 C15.0425181,15.2562824 14.8343698,15.2966429 14.616068,15.2915979 C12.7275035,15.2865528 10.8440157,15.2865528 8.9554512,15.2865528 C7.04150273,15.2865528 5.13263104,15.2915979 3.21868257,15.2815077 C2.89884503,15.2815077 2.57900749,15.2361021 2.34039853,14.9737586 C2.2033253,14.8224066 2.13225029,14.6559194 2.13225029,14.4642069 C2.1271735,10.6652715 2.1271735,6.85624596 2.13225029,3.04722043 Z" id="形状"></path>
                            <path d="M0.045915159,14.5710928 C0.0510168435,15.0209115 0.178558952,15.4454595 0.372422957,15.8396826 C0.902998128,16.9212691 1.84680973,17.4064668 3.00489208,17.4165751 C6.80564691,17.4468999 10.6064017,17.4266833 14.4020549,17.4266833 C14.8765115,17.4266833 15.3509682,17.3862502 15.8152215,17.2750591 C17.1977779,16.9364315 18.0395558,15.9407654 18.0497592,14.5256055 C18.0752676,10.7956484 18.0599626,7.06569122 18.0599626,3.33573405 C18.0599626,3.08808107 18.0599626,2.84042809 18.0140474,2.5927751 C17.8609969,1.77400402 17.4681672,1.10685721 16.7794398,0.621659527 C16.2182545,0.227436412 15.580544,0.0657038525 14.8969183,0.0454872825 C14.7795795,0.0404331399 14.6469357,0.106136992 14.5449021,0 C14.5806138,0.151624275 14.7132576,0.12129942 14.8101896,0.12129942 C15.0244604,0.12129942 15.2336294,0.151624275 15.4427985,0.176894987 C16.6161859,0.338627548 17.5702009,1.18266935 17.8660986,2.31479727 C17.9477255,2.6281541 17.988539,2.94151094 17.988539,3.26497606 C17.9834373,7.00504151 17.988539,10.7400528 17.9834373,14.4801183 C17.9834373,15.7790329 17.2385914,16.7696448 15.9886787,17.1638679 C15.5193238,17.3104381 15.0346637,17.3609795 14.5551054,17.3609795 C10.7237405,17.3710878 6.89237554,17.3761419 3.05590892,17.3609795 C2.214131,17.3559253 1.45398004,17.0880558 0.862184654,16.4461797 C0.413236431,15.9559279 0.23467748,15.3595391 0.132643793,14.7277712 C0.11733874,14.6317425 0.15305053,14.4952807 0,14.4649558 C0.0663218964,14.47001 0.045915159,14.5306597 0.045915159,14.5710928 Z M3.75994136,38.588378 C3.86707673,38.5732156 3.97931378,38.5833239 4.09155084,38.5833239 L14.6010206,38.5833239 C15.0295621,38.5833239 15.4479002,38.5327824 15.8611366,38.4266454 C17.1620661,38.093072 17.9732339,37.0670811 17.9783356,35.7378416 C17.9834373,34.4591436 17.9783356,33.1753914 17.9783356,31.8966933 L17.9783356,24.4165624 C17.9783356,22.7840744 16.8865752,21.5761343 15.2438328,21.3992394 C14.6622408,21.3385896 14.0755471,21.3133189 13.4888534,21.2981565 C11.7287723,21.2627775 9.9686912,21.3234272 8.21371179,21.3638604 C6.53015595,21.4042935 4.84660012,21.3739686 3.16814597,21.3992394 C2.58145228,21.4093476 2.01516531,21.5357012 1.4998952,21.8086249 C0.806066126,22.1725232 0.382626326,22.7436413 0.188762321,23.4967085 C0.15305053,23.6382245 0.183660636,23.8252278 7.81597009e-14,23.9010399 L7.81597009e-14,35.7277333 C0.102033687,36.0057112 0.112237055,36.3039056 0.19896569,36.5919917 C0.499965066,37.6381992 1.18869245,38.2750212 2.22943606,38.5580531 C2.56104554,38.6490277 2.90285839,38.6742984 3.24467124,38.6641901 C3.31609482,38.6641901 3.41302682,38.6085946 3.46914535,38.7096774 L3.57117904,38.7096774 C3.58138241,38.5934321 3.67831441,38.5984863 3.75994136,38.588378 Z M3.17834934,36.5363961 C2.55594385,36.5363961 2.12230069,36.2028227 2.12735783,35.5002969 C2.14780911,31.7956105 2.13760574,28.090924 2.13250405,24.3811834 C2.13250405,23.7847946 2.48962196,23.4663836 3.06611229,23.4461671 C6.8719688,23.3248676 10.6727236,23.4208964 14.4785802,23.4057339 C14.805088,23.4057339 15.1622059,23.3855174 15.4785103,23.5573582 C15.7540012,23.7089825 15.9121535,23.9212565 15.9121535,24.2497757 C15.9070518,26.1450792 15.9121535,28.0403826 15.9121535,29.935686 C15.9121535,31.815827 15.9019501,33.6909139 15.917303,35.5710549 C15.9223568,36.1826062 15.5193238,36.460584 14.9632402,36.5465044 C14.5244953,36.6122083 14.0959538,36.5465044 13.6623107,36.5414503 C10.1676569,36.531342 6.67300312,36.5363961 3.17834934,36.5363961 L3.17834934,36.5363961 Z" id="形状"></path>
                            <path d="M3.8513829,38.6694204 C7.30997575,38.6643883 10.7736698,38.6643883 14.2322626,38.6694204 C14.7117725,38.6694204 15.1861813,38.6593562 15.6605901,38.5637458 C16.2982362,38.4379427 16.8746684,38.17124 17.3184701,37.7032524 C17.8132835,37.1799114 18.0581397,36.5257352 18.0581397,35.8111734 C18.068342,32.0723045 18.0632408,28.3284035 18.0632408,24.5895346 C18.0632408,24.2725107 18.0428362,23.9655511 17.9612174,23.6585915 C17.6908555,22.6571986 17.0787151,21.9627653 16.0890883,21.5803238 C15.4106327,21.3186533 14.696469,21.3287176 13.9976088,21.3136212 C12.8192387,21.2884606 11.6408686,21.2683321 10.4624984,21.3387818 C9.49327625,21.3991673 8.51385172,21.3538782 7.53952837,21.3891031 C6.13160562,21.4343922 4.71858169,21.4041994 3.30555777,21.3991673 C2.97908293,21.3991673 2.65770926,21.4293601 2.33633558,21.4998098 C1.39772042,21.7111591 0.67845553,22.1942431 0.265260809,23.0748649 C0.132630405,23.3616961 0.122428066,23.67872 0,23.9655511 C0.188743268,23.8900692 0.153035082,23.7038806 0.188743268,23.5629811 C0.382587705,22.8131944 0.811085934,22.2445643 1.4997438,21.8822513 C2.02006308,21.6105166 2.58119172,21.4847134 3.1678262,21.4746492 C4.8512121,21.4494886 6.52949683,21.4796813 8.21288273,21.4394243 C9.97278617,21.3991673 11.7275884,21.3387818 13.4874919,21.3740067 C14.0741264,21.3840709 14.6607608,21.4092316 15.2422942,21.4746492 C16.8848707,21.6507736 17.9714198,22.8534514 17.976521,24.4788278 L17.976521,31.9263729 C17.976521,33.1995005 17.9816221,34.4776603 17.976521,35.7507879 C17.9663186,37.0792689 17.1603339,38.0957582 15.8595357,38.4278784 C15.4463409,38.533553 15.028045,38.5838743 14.5995468,38.5838743 L4.09113786,38.5838743 C3.97891213,38.5838743 3.87178757,38.5788422 3.75956185,38.5889064 C3.67794314,38.5989707 3.58102092,38.5889064 3.57081858,38.7096774 C3.64733612,38.614067 3.75956185,38.6694204 3.8513829,38.6694204 L3.8513829,38.6694204 Z" id="路径"></path>
                            <path d="M1.30014448,0.601364441 C1.9603741,0.197085825 2.69170537,0.0656952749 3.4433514,0.0606417926 C5.53069274,0.0404278619 7.61803408,0.0555883098 9.70537542,0.050534827 C9.78663445,0.050534827 9.88820823,0.111176619 9.9542312,0.00505348279 C9.86789348,0.0555883098 9.77139838,0.0303208963 9.67998197,0.0303208963 C7.40472912,0.0454813442 5.12947628,-0.0101069651 2.85422344,0.0606417926 C1.89435114,0.0909626889 1.08176084,0.469973891 0.492632871,1.25326371 C0.172675439,1.67775625 0.0304721365,2.16289059 5.68434189e-14,2.68339931 C0.0914164089,2.56211572 0.0609442725,2.41051124 0.0964950984,2.26901373 C0.299642674,1.56657963 0.66530831,0.99553609 1.30014448,0.601364441 Z M36.6681374,0.050534827 C37.0033309,0.0353743791 37.3334457,0.0758022405 37.6584818,0.156657964 C38.7250066,0.429546029 39.4715739,1.05617788 39.8321609,2.11740925 C39.9134199,2.35997642 39.9235773,2.61770403 39.9997576,2.8602712 L39.9997576,2.84005727 C40.0200724,1.42002864 38.7605574,0.151604481 37.3232883,0.0454813442 C37.0388817,0.0252674135 36.7544751,0.0707487577 36.4700685,0 C36.510698,0.106123136 36.6021144,0.0555883094 36.6681374,0.050534827 Z M3.23004645,38.6692496 C2.88977426,38.6793565 2.54950207,38.6540891 2.21938726,38.5631264 C1.18333463,38.2801314 0.49771156,37.6433926 0.198068886,36.5973217 C0.116809856,36.3092731 0.106652477,36.0111177 0,35.7331761 C0.055865583,36.0010107 0.040629515,36.2789522 0.106652477,36.5467868 C0.385980394,37.6989809 1.40171827,38.5985008 2.57489552,38.6692496 C2.8694595,38.6894635 3.16402349,38.6389287 3.45350878,38.7096774 C3.3976432,38.6136612 3.3011481,38.6641961 3.23004645,38.6692496 Z" id="形状"></path>
                            <path d="M25.0591848,27.4381513 C24.4412768,27.448166 24.0343617,27.8537603 24.0343617,28.4396189 L24.0343617,37.0422253 C24.0343617,37.6581279 24.4613713,38.0487003 25.0792794,38.0386856 C25.7273292,38.0286709 26.1342443,37.6931793 26.1392679,37.05224 C26.1493152,34.1780281 26.1442916,31.2988088 26.1392679,28.4245968 C26.1392679,27.8237163 25.717282,27.4281366 25.0591848,27.4381513 L25.0591848,27.4381513 Z M37.7690004,27.448166 C37.2716597,27.3580339 36.5984917,27.6935255 36.5984917,28.3595015 C36.5884444,29.8216441 36.5984917,31.2787794 36.5984917,32.7409221 L36.5984917,37.0973061 C36.5984917,37.1774235 36.593468,37.2675556 36.6185862,37.3426656 C36.7843664,37.8133554 37.3419907,38.1538544 37.7991422,38.0436929 C38.3718375,37.9084948 38.6983742,37.6831646 38.7033979,36.9721226 C38.7134452,34.1930501 38.7084215,31.4139776 38.7084215,28.634905 C38.7033979,27.9138484 38.477334,27.5783567 37.7690004,27.448166 Z M33.1120837,30.4475613 C32.981469,29.9768716 32.4590102,29.6063286 32.0018587,29.6914533 C31.3789271,29.8116294 31.0272721,30.0219376 31.0222485,30.7379869 C31.0071775,32.7960028 31.0172248,34.859026 31.0172248,36.9170419 C31.0172248,37.6080545 31.3035724,37.9185095 31.8963623,38.0286709 C32.4539866,38.133825 33.122131,37.8033407 33.1271547,37.0722694 L33.1271547,33.8926098 L33.1271547,30.6628769 C33.1271547,30.5977815 33.1271547,30.5176641 33.1120837,30.4475613 L33.1120837,30.4475613 Z M31.7205348,21.3091697 C31.2834779,21.4043091 31.0172248,21.8199182 31.0172248,22.3006226 L31.0172248,26.7271093 C31.0172248,27.3830706 31.2181705,27.7786503 31.9265041,27.9138484 C32.4439393,28.0089878 33.1321783,27.6534668 33.1271547,26.9874909 C33.122131,26.1963315 33.1271547,25.4051721 33.1271547,24.6090054 C33.1271547,23.8428827 33.1171074,23.07676 33.1271547,22.3056299 C33.1422256,21.3542357 32.3937029,21.1639569 31.7205348,21.3091697 L31.7205348,21.3091697 Z M25.7424002,21.4393605 C25.4962417,21.269111 25.2350123,21.2741029 24.9687592,21.2741029 C24.4412768,21.2741029 24.0393854,21.669698 24.0393854,22.1904612 L24.0393854,23.492369 C24.0393854,23.9430294 24.0343617,24.3936898 24.0393854,24.8443503 C24.044409,25.0746878 24.1046927,25.2799887 24.2855438,25.4602528 C24.5467733,25.7206344 24.8481918,25.7957445 25.1998468,25.7857298 C25.6971874,25.7707078 26.1442916,25.3400767 26.1442916,24.8493576 C26.1493152,23.9630588 26.1543389,23.0817673 26.1392679,22.1954685 C26.1392679,21.8900209 26.0187005,21.6296393 25.7424002,21.4393605 L25.7424002,21.4393605 Z M38.6179959,21.8649842 C38.5074758,21.5545293 38.125679,21.2741183 37.7187639,21.2641037 C37.0003831,21.239067 36.5331843,21.6596834 36.5884444,22.4057767 C36.6135626,22.7562904 36.593468,23.106804 36.593468,23.4573177 L36.593468,24.7091521 C36.593468,24.7842622 36.593468,24.8593723 36.6135626,24.929475 C36.7743191,25.4452308 37.2616125,25.7056124 37.8142131,25.6305023 C38.3668138,25.5503849 38.6883269,25.2098859 38.6983742,24.6440567 C38.7134452,23.8528974 38.7033979,23.0567306 38.7033979,22.2655712 C38.7033979,22.1203584 38.6632087,21.9901677 38.6179959,21.8649842 L38.6179959,21.8649842 Z M12.1785654,6.93810998 C12.0831162,6.57257431 11.7816976,6.30217806 11.4049244,6.25210468 C11.3396171,6.24209001 11.2692861,6.23207533 11.2039787,6.23207533 C11.1738369,6.23207533 11.1286241,6.24209001 11.1185768,6.19201663 L9.67176776,6.19201663 C9.65167319,6.227068 9.61650769,6.20703864 9.59138948,6.20703864 C8.92324502,6.20703864 8.25510057,6.20203131 7.58695611,6.21204598 C7.34582127,6.21204598 7.10971007,6.25711202 6.89871709,6.38730281 C6.69274774,6.51248625 6.57720397,6.69775776 6.51189661,6.92308796 C6.50184933,6.968154 6.51189661,7.01822738 6.48175476,7.05327875 L6.48175476,10.8338189 C6.53199118,10.8438335 6.51692026,10.8888996 6.5219439,10.9189436 C6.5571094,11.1242444 6.61236946,11.3145233 6.75303145,11.4697508 C6.93890623,11.6750516 7.18506471,11.7601764 7.45131776,11.7651837 C8.6720629,11.770191 9.89783167,11.770191 11.1185768,11.7651837 C11.2743097,11.7651837 11.425019,11.7501617 11.5757283,11.7000883 C11.972596,11.5749049 12.2137309,11.2544352 12.2137309,10.8388262 L12.2137309,7.23855025 C12.2187545,7.13840349 12.2036836,7.03825673 12.1785654,6.93810998 L12.1785654,6.93810998 Z M33.9560557,6.55254496 C33.8606065,6.18700929 33.5591879,5.91661305 33.1824147,5.86653967 C33.1171074,5.85652499 33.0467764,5.84651032 32.981469,5.84651032 C32.9513272,5.84651032 32.9061144,5.85652499 32.8960671,5.80645161 L31.4492581,5.80645161 C31.4291635,5.84150298 31.393998,5.82147363 31.3688798,5.82147363 C30.7007353,5.82147363 30.0325909,5.81646629 29.3644464,5.82648096 C29.1233116,5.82648096 28.8872004,5.87154701 28.6762074,6.00173779 C28.4702381,6.12692124 28.3546943,6.31219274 28.2893869,6.53752294 C28.2793396,6.58258899 28.2893869,6.63266236 28.2592451,6.66771373 L28.2592451,10.4482538 C28.3094815,10.4582685 28.2944106,10.5033345 28.2994342,10.5333786 C28.3345997,10.7386794 28.3898598,10.9289583 28.5305218,11.0841857 C28.7163965,11.2894866 28.962555,11.3746113 29.2288081,11.3796187 C30.4495532,11.384626 31.675322,11.384626 32.8960671,11.3796187 C33.0518,11.3796187 33.2025093,11.3645967 33.3532186,11.3145233 C33.7500863,11.1893398 33.9912212,10.8688702 33.9912212,10.4532612 L33.9912212,6.85298523 C34.0012685,6.75283847 33.9811739,6.64768438 33.9560557,6.55254496 L33.9560557,6.55254496 Z M12.1484235,27.908841 C12.0529743,27.5433054 11.7515558,27.2729091 11.3747826,27.2228358 C11.3094752,27.2128211 11.2391442,27.2028064 11.1738369,27.2028064 C11.143695,27.2028064 11.0984822,27.2128211 11.0884349,27.1627477 L9.6416259,27.1627477 C9.62153133,27.1977991 9.58636583,27.1777697 9.56124762,27.1777697 C8.89310317,27.1777697 8.22495871,27.1727624 7.55681426,27.182777 C7.31567942,27.182777 7.07956822,27.2278431 6.86857523,27.3580339 C6.66260589,27.4832173 6.54706211,27.6684888 6.48175476,27.893819 C6.47170747,27.9388851 6.48175476,27.9889584 6.4516129,28.0240098 L6.4516129,31.8045499 C6.50184933,31.8145646 6.4867784,31.8596306 6.49180204,31.8896747 C6.52696754,32.0949755 6.58222761,32.2852544 6.7228896,32.4404818 C6.90876437,32.6457827 7.15492286,32.7309074 7.42117591,32.7359148 C8.64192104,32.7409221 9.86768982,32.7409221 11.0884349,32.7359148 C11.2441679,32.7359148 11.3948771,32.7208927 11.5455864,32.6708194 C11.9424542,32.5456359 12.183589,32.2251663 12.183589,31.8095573 L12.183589,28.2092813 C12.1886127,28.1091346 12.1735417,28.0089878 12.1484235,27.908841 L12.1484235,27.908841 Z" id="形状"></path>
                        </g>
                    </g>
                </g>
            </g>
        </g>
    </g>
</svg>