<svg t="1756362657036" class="icon" viewBox="0 0 1074 1024" version="1.1" xmlns="http://www.w3.org/2000/svg" p-id="4625" width="200" height="200"><path d="M365.341688 605.798894c-46.955794 0-77.229475-37.543292-67.279115-83.436177l40.642374-166.086912c9.95036-45.888617 56.513432-83.436177 103.469226-83.436177h377.067831c46.955794 0 91.119852 37.987237 98.129072 84.413712l28.024071 164.127574c7.026294 46.430743-25.667744 84.409443-72.623538 84.409442l-507.429921 0.008538z" fill="#9BEDB3" p-id="4626"></path><path d="M365.341688 590.858414c-18.103593 0-33.496556-6.727485-43.348735-18.944529-9.852179-12.212775-13.164697-28.694259-9.331397-46.388055-0.089643 0.392721 40.557-165.69419 40.557-165.694191 8.511805-39.229431 49.205403-72.047263 88.955617-72.047262h377.067831c39.310537 0 77.481329 32.839175 83.355072 71.705766l28.071027 164.413578c2.693555 17.800515-1.797126 34.725944-12.669527 47.361321-10.876669 12.639646-26.935551 19.60191-45.226967 19.601909H365.341688z m507.446996 29.88096c27.123374 0 51.23304-10.658965 67.868197-29.991946 16.635157-19.341518 23.56754-44.770215 19.512267-71.590511l-28.075296-164.409309c-8.050784-53.269214-58.694742-96.839922-112.856117-96.839922h-377.06783c-53.717428 0-106.687832 42.712698-118.06821 95.209275 0.089643-0.384184-40.561268 165.702728-40.561268 165.702728-5.878012 27.084956-0.448214 52.466697 15.183796 71.859439 15.636279 19.388474 39.293462 30.068783 66.608928 30.068783l507.455533-0.008537z" fill="#6E6E96" p-id="4627"></path><path d="M146.711244 883.713163s-45.666644-0.102449-64.969744-0.243317c-19.294563-0.140867-34.952185-17.591348-34.798512-38.80256l0.665918-141.311327 0.311616-43.493872c0-41.265605 33.84659-67.291921 76.939203-77.062995l155.094987-32.35681 678.191068-0.008538c19.986093 7.103131 84.396636 8.405087 84.396636 89.019648l1.15682 211.258385a37.974431 37.974431 0 0 1-38.226285 38.307391l-38.951965-0.268929" fill="#9BEDB3" p-id="4628"></path><path d="M102.047746 752.296702l0.307347-42.546218c0-40.343564 33.091029-65.789336 75.235988-75.338437l137.345697-28.660109 677.503806-2.988096c6.872621 2.437433 19.153695 4.19614 32.173256 8.878914-14.667283-47.118005-61.687107-48.970624-78.096022-54.797412l-663.173752 0.004269-151.662945 31.635399c-42.144959 9.55337-75.235988 35.007679-75.235988 75.351243l-0.311616 42.546218-0.648843 138.165289c-0.140867 20.741655 15.166721 37.807951 34.034413 37.953088l11.918234 0.072568 0.610425-130.276716z" fill="#B8FFCB" opacity=".44" p-id="4629"></path><path d="M1034.017805 647.999346c0-80.623098-64.414812-81.920785-84.396636-89.019647l-678.191068 0.004268-155.094987 32.352542c-43.10115 9.771074-76.939203 35.805927-76.939203 77.067264l-0.315884 43.493871-0.665919 141.311328c-0.145136 21.211213 15.512487 38.665962 34.798512 38.80256 19.298831 0.13233 64.969744 0.247585 64.969744 0.247585l819.831086 5.045614 38.943428 0.26466a37.961625 37.961625 0 0 0 38.226285-38.303122l-1.165358-211.266923z m-97.740619 185.530879l-35.528461-0.217704-747.856392-4.025392s-41.658327-0.085374-59.26248-0.192092c-17.599885-0.093912-31.882984-14.039782-31.750654-30.973749l0.610425-112.796354 0.290272-34.734482c0-32.941624 30.862763-53.713159 70.181837-61.516358l141.486345-25.829956 618.659659-0.004268c18.231654 5.668845 76.977621 6.701872 76.97762 71.056922l1.05864 168.652405c0.16648 16.946773-15.521024 30.692014-34.866811 30.581028z" fill="#87CFB0" p-id="4630"></path><path d="M146.749662 868.772683l-64.897176-0.243316c-10.910819-0.085374-20.054393-10.962044-19.969018-23.759632l0.665918-141.319865 0.311616-43.476796c0-43.139568 45.670913-58.144079 65.302703-62.596342-0.251854 0.059762 154.843133-32.297049 154.843133-32.297049a14.966092 14.966092 0 0 1-3.052126 0.315885l678.191068-0.004269c-1.698946 0-3.393623-0.290272-5.002927-0.862279 3.709508 1.327568 7.973948 2.322177 12.908575 3.483266 25.970823 6.125597 61.541971 14.500803 61.541971 71.449643l1.15682 211.34376a22.888815 22.888815 0 0 1-6.718947 16.515633 22.914427 22.914427 0 0 1-16.472947 6.770172l-38.930621-0.26466a14.944749 14.944749 0 0 0-0.20063 29.88096l38.947697 0.264659a52.496578 52.496578 0 0 0 37.820758-15.550905 52.581952 52.581952 0 0 0 15.448456-37.825026l-1.15682-211.211429c0-80.524918-59.262481-94.496401-84.571654-100.459787-3.910137-0.922041-7.594032-1.792858-9.762536-2.565494a14.957555 14.957555 0 0 0-5.002927-0.85801H279.967518c-1.02449 0-2.044711 0.106718-3.052127 0.315884l-155.094987 32.356811C66.10522 580.805605 32.984311 615.053454 32.984311 659.862087l-0.311616 43.395691-0.665918 141.332671c-0.200629 29.458358 22.064954 53.623517 49.636542 53.81134l65.033775 0.247585a14.94048 14.94048 0 0 0 0.072568-29.876691z" fill="#6E6E96" p-id="4631"></path><path d="M370.852591 901.20633h325.843329c8.255682 0 14.94048-6.684798 14.940479-14.94048 0-8.259951-6.684798-14.94048-14.940479-14.940479H370.852591a14.94048 14.94048 0 1 0 0 29.880959zM279.967518 550.44655h29.88096v223.091246h-29.88096z" fill="#6E6E96" p-id="4632"></path><path d="M97.416197 829.133456s21.049002-114.964858 155.513321-114.964859 166.483901 116.586967 166.483901 116.586968l-321.997222-1.622109zM656.617015 833.402164s29.586419-123.502275 164.050738-123.502275c162.210924 0 157.950753 125.124384 157.950753 125.124384l-322.001491-1.622109z" fill="#87CFB0" p-id="4633"></path><path d="M364.735532 763.911858h344.587227v54.750455H364.735532z" fill="#87CFB0" p-id="4634"></path><path d="M1059.35259 870.63384c0 11.738948-9.604594 21.343543-21.343542 21.343543H36.284023c-11.738948 0-21.343543-9.604594-21.343543-21.343543v-42.01263c0-11.738948 9.604594-21.343543 21.343543-21.343542h1001.725025c11.738948 0 21.343543 9.604594 21.343542 21.343542v42.01263z" fill="#F0F0FF" p-id="4635"></path><path d="M1044.41211 870.63384c0 3.47046-2.936871 6.403063-6.403062 6.403063H36.284023a6.488437 6.488437 0 0 1-6.403063-6.403063v-42.01263c0-3.47046 2.932603-6.403063 6.403063-6.403062h1001.725025c3.466191 0 6.403063 2.932603 6.403062 6.403062v42.01263z m29.88096-42.01263c0-20.011706-16.276586-36.284023-36.284022-36.284022H36.284023c-20.007437 0-36.284023 16.272317-36.284023 36.284022v42.01263c0 20.007437 16.276586 36.284023 36.284023 36.284022h1001.725025c20.007437 0 36.284023-16.276586 36.284022-36.284022v-42.01263z" fill="#6E6E96" p-id="4636"></path><path d="M14.94048 852.099107h1038.192602v29.88096H14.94048z" fill="#6E6E96" opacity=".15" p-id="4637"></path><path d="M259.528941 885.027925m-113.359823 0a113.359824 113.359824 0 1 0 226.719647 0 113.359824 113.359824 0 1 0-226.719647 0Z" fill="#F0F0FF" p-id="4638"></path><path d="M259.528941 797.276084c48.381543 0 87.751841 39.374568 87.751842 87.75611a87.205447 87.205447 0 0 1-25.701894 62.045678 87.167028 87.167028 0 0 1-62.049948 25.697626c-48.381543 0-87.747573-39.361761-87.747572-87.743304s39.361761-87.75611 87.747572-87.75611z m-138.972075 87.75611c0 76.623318 62.340219 138.967806 138.972075 138.967806 76.631856 0 138.976344-62.340219 138.976344-138.967806 0-76.636124-62.340219-138.980612-138.976344-138.980613-76.636124 0-138.972075 62.348757-138.972075 138.980613z" fill="#6E6E96" p-id="4639"></path><path d="M254.863243 841.986537c43.99331 0 80.91337 30.213919 91.175345 71.018504 1.861157-7.376328 2.84296-15.068541 2.84296-23.025414 0-51.928839-42.089466-94.022574-94.018305-94.022574s-94.031112 42.089466-94.031112 94.022574c0 7.935529 0.994609 15.649085 2.851498 23.025414 10.261975-40.804585 47.186304-71.018504 91.179614-71.018504z" fill="#6E6E96" opacity=".15" p-id="4640"></path><path d="M257.198226 886.607347m-30.807269 0a30.807269 30.807269 0 1 0 61.614539 0 30.807269 30.807269 0 1 0-61.614539 0Z" fill="#6E6E96" p-id="4641"></path><path d="M831.002296 885.027925m-113.359824 0a113.359824 113.359824 0 1 0 226.719648 0 113.359824 113.359824 0 1 0-226.719648 0Z" fill="#F0F0FF" p-id="4642"></path><path d="M831.002296 797.276084c48.381543 0 87.75611 39.374568 87.75611 87.75611 0 23.430941-9.135036 45.466015-25.701894 62.045678a87.171297 87.171297 0 0 1-62.054216 25.697626c-48.381543 0-87.743304-39.361761-87.743304-87.743304s39.361761-87.75611 87.743304-87.75611z m-138.963537 87.75611c0 76.623318 62.340219 138.967806 138.967806 138.967806 76.636124 0 138.980612-62.340219 138.980612-138.967806 0-76.636124-62.340219-138.980612-138.980612-138.980613-76.636124 0-138.967806 62.348757-138.967806 138.980613z" fill="#6E6E96" p-id="4643"></path><path d="M826.345135 841.986537c43.99331 0 80.91337 30.213919 91.171077 71.018504 1.865426-7.376328 2.84296-15.068541 2.84296-23.025414 0-51.928839-42.089466-94.022574-94.014037-94.022574-51.933108 0-94.031112 42.089466-94.031111 94.022574 0 7.935529 0.994609 15.649085 2.851497 23.025414 10.257707-40.804585 47.182035-71.018504 91.179614-71.018504z" fill="#6E6E96" opacity=".15" p-id="4644"></path><path d="M828.67585 886.607347m-30.80727 0a30.807269 30.807269 0 1 0 61.614539 0 30.807269 30.807269 0 1 0-61.614539 0Z" fill="#6E6E96" p-id="4645"></path><path d="M528.974093 623.590871h55.493211v29.88096h-55.493211z" fill="#6E6E96" p-id="4646"></path><path d="M416.019796 510.922578c-34.337491 0-35.131471-28.156401-27.853323-62.566461l8.379475-45.84593c9.6857-45.803243 38.922084-62.579267 75.675665-62.579267h319.453071c45.444671 0 62.476818 28.493629 67.607806 63.313485l7.692213 44.368957c5.130988 34.819855 2.364865 63.309216-31.976896 63.309216H416.019796z" fill="#AADBF7" p-id="4647"></path><path d="M416.019796 495.982098c-6.684798 0-11.158404-1.336106-13.305564-3.986974-3.077739-3.799151-5.566396-13.91599 0.068299-40.552731 0.081105-0.405527 8.456312-46.247188 8.456312-46.247188 7.235461-34.205161 26.636741-50.323805 60.974232-50.323805h319.461609c31.379276 0 47.664399 15.589324 52.816731 50.550047l7.747706 44.740334c3.128963 21.35208 2.172773 35.379056-2.945409 41.308292-0.968997 1.114133-3.893062 4.512025-14.31298 4.512025H416.019796z m418.960936 29.88096c15.986313 0 28.403987-5.002926 36.924329-14.859375 14.756925-17.096178 13.006755-44.023191 9.835105-65.563094l-7.747706-44.736065c-9.203336-62.506699-49.858516-75.701277-82.322044-75.701277h-319.457341c-48.074195 0-80.136465 26.431843-90.283185 74.429202-0.081105 0.409796-8.456312 46.247188-8.456312 46.247188-4.465069 21.08742-7.897111 47.963209 6.035954 65.153298 8.093471 9.984509 20.378815 15.03866 36.514533 15.03866l418.956667-0.008537z" fill="#6E6E96" p-id="4648"></path><path d="M618.245594 339.93092h29.88096v170.991658h-29.88096z" fill="#6E6E96" p-id="4649"></path><path d="M414.521479 393.21294h427.502623l-18.880498-47.348515h-384.418547zM648.126554 393.21294h36.284022v102.769158h-36.284022z" fill="#6E6E96" opacity=".15" p-id="4650"></path><path d="M490.184338 427.208935h-59.757651l4.268709-32.015314h55.488942zM685.836325 395.193621h55.493211v32.015314h-55.493211z" fill="#FFFFFF" opacity=".6" p-id="4651"></path><path d="M311.248614 531.237362h618.634047v34.90523H311.248614z" fill="#9BEDB3" p-id="4652"></path><path d="M617.899829 475.774032h29.880959v342.888281h-29.880959z" fill="#6E6E96" p-id="4653"></path><path d="M588.428665 76.205838C516.513732 24.443479 385.404619 76.047896 385.404619 76.047896s25.595176 107.515962 85.762623 150.826279c48.330318 34.798512 120.573941 62.613417 152.939289 21.010583 32.386692-41.611371 36.228529-119.912291-35.677866-171.67892z" fill="#85CC85" p-id="4654"></path><path d="M620.379948 252.153467c-33.923427 35.259532-102.645365 8.242876-149.212706-25.279292-60.167447-43.310317-85.762623-150.826279-85.762623-150.826279s1.173895-0.465289 3.355204-1.255c43.011507-1.062908 94.39822 15.478337 140.555766 48.697427 51.075098 36.766387 83.577044 85.220497 91.064359 128.663144z" fill="#69A169" p-id="4655"></path><path d="M590.92586 227.25409c-23.836468 23.443747-80.94752-2.390477-121.017887-31.225603-51.766628-37.274363-81.788455-119.502495-81.788456-119.502495s0.887891-0.247585 2.556957-0.653113c34.128325 2.783198 76.512332 19.375668 116.228395 47.954672 43.937817 31.63113 74.164542 70.437959 84.020991 103.426539z" fill="#87CF87" opacity=".48" p-id="4656"></path><path d="M535.927819 132.979662c-22.858934-44.048803-45.209892-53.384469-45.209892-53.384469 21.894206 20.698968 26.901401 43.801218 26.901401 43.801218l18.308491 9.583251zM552.708112 164.499806c-43.071269 3.090545-54.541289 15.986313-54.541289 15.986313 36.109005-9.416771 72.371684 6.364644 72.371685 6.364645 18.598763 0.665919-17.830396-22.350958-17.830396-22.350958z" fill="#69A169" p-id="4657"></path><path d="M597.158174 64.078438c-77.639271-55.881663-211.561464-4.161991-217.221771-1.933725l-12.067639 4.751072 3.005171 12.614034c1.097058 4.610205 27.618544 113.458004 91.568066 159.491757 59.821681 43.071269 136.654166 65.362465 173.458972 18.060906 19.917794-25.603714 28.903425-61.187668 24.011485-95.192201-3.846106-26.77334-17.856008-65.469183-62.754284-97.791843z m15.153915 174.632866c-26.115959 33.564855-93.497523 4.059542-132.415338-23.960261-54.874248-39.502629-79.713863-141.144848-79.961449-142.169338l-9.062468 17.369375c1.229388-0.482364 124.428585-47.971746 188.817785-1.617841 36.373665 26.184258 47.613175 56.75248 50.639689 77.788676 3.760732 26.128765-2.97529 53.264945-18.018219 72.589389z" fill="#6E6E96" p-id="4658"></path><path d="M643.290107 242.484842c37.81222 48.612053 122.208857 16.110106 178.675333-24.545074C892.258264 167.338497 922.164836 41.731748 922.164836 41.731748s-153.174068-60.295508-237.199327 0.179286c-84.003915 60.479062-79.521771 151.961755-41.675402 200.573808z" fill="#85CC85" p-id="4659"></path><path d="M754.037481 97.160929c53.922326-38.811098 113.948906-58.135542 164.20868-56.897616 2.552688 0.92631 3.922943 1.468436 3.922943 1.468435s-29.906572 125.611017-100.199395 176.20802c-54.400422 39.161132-134.694829 70.728232-174.32125 29.539463 8.742315-50.759213 46.716746-107.370826 106.389022-150.318302z" fill="#69A169" p-id="4660"></path><path d="M780.217471 97.549381c46.400862-33.389838 95.917881-52.774044 135.796156-56.026799 1.942262 0.473827 2.983827 0.764099 2.983827 0.764098s-35.075978 96.067286-95.559309 139.612382c-46.810658 33.692916-113.534841 63.876954-141.383896 36.484652 11.516976-38.542169 46.832001-83.875854 98.163222-120.834333z" fill="#87CF87" opacity=".48" p-id="4661"></path><path d="M767.697349 97.045674s5.852399-26.986775 31.4305-51.173278c0 0-26.11169 10.90655-52.825268 62.3701l21.394768-11.196822zM705.873643 171.184603s42.366932-18.436552 84.546041-7.43609c0 0-13.395207-15.068541-63.723281-18.6756 0-0.004269-42.550487 26.884326-20.82276 26.11169z" fill="#69A169" p-id="4662"></path><path d="M631.499934 251.658297c41.961405 53.94367 130.285253 28.024072 199.199284-21.595397 73.955375-53.239333 104.728495-179.524806 106.004839-184.873498l3.000902-12.614033-12.06337-4.751073c-6.565274-2.582569-161.792591-62.53658-251.405589 1.955068-51.741016 37.248751-67.868197 81.775649-72.303386 112.570113-5.604814 39.071489 4.699848 79.931567 27.56732 109.30882z m62.195083-197.619862c76.362927-54.959622 221.545973 1.02449 223.005872 1.596497l-9.071006-17.365106c-0.281735 1.195238-29.513851 120.838601-94.389683 167.542541-55.42918 39.908156-128.564964 65.537482-158.155651 27.49902-17.992606-23.106519-26.056197-55.518823-21.569784-86.706007 3.60279-25.057319 16.968116-61.456597 60.180252-92.566945z" fill="#6E6E96" p-id="4663"></path><path d="M49.090148 734.709623h55.493211v70.433691h-55.493211z" fill="#FFFF00" p-id="4664"></path><path d="M104.583359 820.083793h-55.493211a14.94048 14.94048 0 0 1-14.94048-14.940479v-70.433691a14.94048 14.94048 0 0 1 14.94048-14.94048h55.493211a14.94048 14.94048 0 0 1 14.94048 14.94048v70.433691a14.94048 14.94048 0 0 1-14.94048 14.940479z m-40.552731-29.880959h25.612251v-40.552731h-25.612251v40.552731z" fill="#6E6E96" p-id="4665"></path><path d="M990.340379 726.172206h53.081391v71.573436H990.340379z" fill="#FFA3A3" p-id="4666"></path><path d="M1043.417501 812.686122H990.340379a14.94048 14.94048 0 0 1-14.940479-14.94048v-71.573436a14.94048 14.94048 0 0 1 14.940479-14.94048h53.081391a14.94048 14.94048 0 0 1 14.94048 14.94048v71.573436a14.949017 14.949017 0 0 1-14.944749 14.94048z m-38.136642-29.88096h23.200431v-41.692476H1005.280859v41.692476z" fill="#6E6E96" p-id="4667"></path></svg>